<?xml version="1.0" encoding="UTF-8" standalone="no"?>
<!DOCTYPE svg PUBLIC "-//W3C//DTD SVG 1.1//EN" "http://www.w3.org/Graphics/SVG/1.1/DTD/svg11.dtd">
<svg width="464" height="464" xmlns="http://www.w3.org/2000/svg" xml:space="preserve">
  <path d="m399.66667,449.33333l0,-216c0,-0.629 -0.074,-1.256 -0.221,-1.867l-47.779,-199.081l0,-23.052a8,8 0 0 0 -16,0l0,23.052l-35.178,146.575a7.96,7.96 0 0 0 -4.822,-1.627a8,8 0 0 0 -8,8l-8,0l0,-24a8,8 0 0 0 -16,0l-8,0l0,-24a8,8 0 0 0 -16,0l-8,0a8,8 0 0 0 -16,0l0,24l-8,0a8,8 0 0 0 -16,0l0,24l-8,0a8,8 0 0 0 -8,-8c-1.813,0 -3.48,0.61 -4.822,1.627l-35.178,-146.575l0,-23.052a8,8 0 0 0 -16,0l0,23.052l-47.779,199.08l-0.017,0.094a8,8 0 0 0 -0.117,0.656c-0.011,0.076 -0.026,0.15 -0.035,0.226c-0.032,0.293 -0.052,0.59 -0.052,0.892l0,216a8,8 0 0 0 0,16l328,0a8,8 0 0 0 0,-16m-144,15.33332l-46.66667,0l-1.33333,-39.53332c0,-13.233 10.767,-24 24,-24s24,10.767 24,24l0,39.53332z" style="fill:#ffffff;fill-rule:nonzero;stroke-width:0.838376" id="svg_1"/>
</svg>